<svg xmlns="http://www.w3.org/2000/svg" viewBox="0 0 1395 1150" width="1395" height="1150" aria-hidden="true">
  <path d="M 993.718 430.446 C 996.866 429.813 1004.24 430.099 1007.96 429.91 C 1031.14 428.736 1050.26 432.325 1072.18 439.534 C 1085.33 443.86 1095.97 451.944 1107.61 458.282 C 1161.15 487.414 1189.46 523.82 1208.81 581.313 C 1212.54 592.395 1212.83 611.669 1216.44 619.021 C 1221.06 622.773 1249.18 619.719 1257.08 619.854 C 1293.53 620.478 1292.91 621.751 1289.46 655.65 C 1286.47 684.916 1289.7 719.227 1290.42 748.986 C 1297.79 753.37 1313.32 756.317 1322.41 759.205 C 1337.87 764.213 1353.03 770.089 1367.83 776.804 C 1442.6 811.106 1493.36 851.24 1537.24 921.197 C 1546.75 936.356 1553.67 959.681 1562.34 972.599 C 1572.81 978.399 1603.37 954.208 1609.23 945.336 C 1610.19 942.597 1596.12 933.797 1593.74 932.188 C 1561.91 910.647 1556.91 848.758 1601.25 838.448 C 1641.83 829.01 1657.69 872.356 1651.15 904.946 C 1649.78 911.724 1641.4 924.933 1642.63 931.267 C 1649.65 935.393 1671.01 930.477 1677.53 926.075 C 1684.96 921.061 1693.54 903.194 1705.26 912.68 C 1712.73 932.841 1671.46 949.005 1656.36 950.894 C 1650.15 951.671 1636.58 950.24 1629.85 949.849 C 1615.76 965.338 1604.96 976.014 1586.26 986.308 C 1580.12 989.695 1573.99 990.523 1569.83 993.435 C 1568.43 1000.24 1581.32 1047.78 1582.17 1060.57 C 1586.49 1125.88 1574.14 1183.1 1548.4 1243.03 C 1539.52 1266.55 1529.9 1272.87 1529.3 1299.32 C 1528.58 1330.73 1519.26 1372.33 1510.71 1402.21 C 1499.6 1441.06 1477.68 1500.56 1430.47 1503.82 C 1375.47 1507.61 1360.61 1447.73 1349.82 1406.07 C 1348.09 1399.45 1346.75 1386.96 1341.75 1382.73 L 1339.8 1382.9 C 1337.95 1385.47 1338.23 1388.92 1337.84 1392.01 C 1334.38 1419.19 1321.6 1455.84 1300.43 1474.01 C 1267.2 1502.54 1215.76 1478.29 1202.8 1440.27 C 1201.59 1436.73 1194.93 1420.81 1193 1418.39 C 1188.45 1418.19 1183.98 1418.15 1179.46 1418.65 C 1157.15 1421.16 1134.75 1420.25 1112.36 1421.43 C 1110.01 1426.41 1107.6 1437.11 1105.68 1443 C 1096.77 1470.35 1089.6 1491.92 1070.75 1514.56 C 1061.1 1530.04 1041.63 1541.22 1023.6 1542.21 C 1000.73 1543.45 986.601 1532.9 972.315 1516.3 C 970.42 1514.1 969.427 1509.69 967.765 1507.23 C 954.008 1482.84 948.744 1453.62 942.717 1426.49 C 940.954 1418.56 940.235 1401.9 934.162 1396.42 C 919.42 1391.52 919.833 1420.11 915.429 1430.5 C 909.072 1445.65 901.127 1471.22 888.27 1482.35 C 834.346 1529 788.594 1483.76 774.555 1428.59 C 764.363 1388.55 756.727 1360.4 756.346 1320.3 C 748.298 1307.75 736.747 1301.49 726.289 1291.13 C 706.141 1271.17 684.991 1251.68 669.806 1227.48 C 665.659 1220.88 661.965 1214.16 657.394 1207.8 L 656.658 1206.8 C 609.108 1204.28 559.379 1197.51 512.897 1195.25 C 506.92 1203.36 499.852 1210.59 491.892 1216.76 C 451.672 1247.99 400.196 1243.91 363.153 1210.06 C 353.759 1201.47 332.573 1172.58 344.737 1161.07 C 357.078 1156.57 399.187 1163.93 415.01 1164.67 C 417.501 1161.38 420.88 1156.15 422.332 1152.35 C 446.472 1089.13 377.915 1109.95 351.884 1096.53 C 351.438 1084.93 351.666 1077.96 360.17 1068.97 C 386.359 1041.36 426.068 1032.53 461.358 1045.01 C 492.604 1056.06 503.815 1073.27 522.355 1098.16 C 524.333 1100.82 558.242 1102.12 563.769 1101.55 C 566.295 1097.04 556.365 1086.3 554.617 1078.89 C 544.483 1039.59 553.482 997.265 585.943 970.95 C 608.563 952.613 602.584 958.521 608.609 929.141 C 610.872 918.521 613.606 908.007 616.803 897.63 C 621.299 882.543 626.892 867.805 633.536 853.533 C 637.456 845.156 648.923 824.661 649.778 816.499 C 650.216 812.322 639.855 804.716 637.315 800.865 C 629.963 789.717 622.583 774.947 617.72 762.631 C 603.689 727.097 607.962 695.611 605.684 658.786 C 605 647.73 599.751 638.464 599.733 623.958 L 599.738 622.304 C 601.857 618.959 606.392 612.85 610.301 611.456 C 668.789 590.596 716.021 618.262 769.538 633.896 C 780.374 627.557 795.5 623.242 807.746 616.813 C 809.747 584.575 827.279 542.816 846.391 516.961 C 865.189 491.405 890.114 470.988 918.872 457.591 C 928.202 453.211 938.529 449.963 947.46 445.87 C 960.314 439.625 972.177 434.012 986.624 432.272 C 989.456 431.931 991.034 431.431 993.718 430.446 z M 1621.15 926.518 C 1633.34 906.099 1646.7 874.049 1619.95 858.291 C 1615.75 855.817 1610.42 854.756 1605.71 856.35 C 1567.96 866.993 1594.13 920.023 1621.15 926.518 z" fill="#30271d" transform="translate(-327, -423)" />
  <path d="M 1062.2 721.083 C 1060.01 726.612 1056.2 733.624 1059.8 739.454 C 1064.04 747.575 1074.07 745.032 1077.87 738.12 C 1088.97 717.928 1096.58 701.419 1114.56 685.936 C 1151.8 653.875 1222.8 636.232 1271.24 639.911 C 1269.63 646.372 1268.39 655.899 1267.36 662.677 C 1266.35 681.085 1267.14 693.952 1268.34 712.31 C 1270.09 723.328 1271.11 757.304 1269.04 767.558 C 1268.77 773.443 1267.43 783.608 1265.53 789.148 C 1260.85 813.332 1246.07 836.913 1226.05 851.257 C 1219.3 856.094 1203.79 859.325 1202.86 867.617 C 1200.79 886.12 1219.62 879.325 1227.96 874.946 C 1266.23 854.847 1288.46 812.747 1291.32 770.593 C 1316.26 777.601 1339.98 784.823 1363.63 795.501 C 1429.43 825.213 1486.87 873.089 1522.42 936.554 C 1548.06 982.317 1562.77 1037.16 1563.69 1089.75 C 1564.03 1141.72 1549.29 1192.65 1528.12 1239.71 C 1524.89 1246.88 1515.61 1264.14 1514.14 1270.82 C 1507.88 1299.31 1507.49 1329.17 1500.57 1357.83 C 1499.67 1364.28 1497.78 1375.01 1495.74 1381.13 C 1487.69 1416.31 1474.96 1456.81 1444.87 1479.41 C 1441.43 1481.99 1434.41 1483.16 1430.22 1483.76 C 1388.04 1489.8 1378.2 1432.14 1369.76 1402.31 C 1365.57 1387.08 1360.95 1371.98 1355.9 1357.03 C 1353.35 1349.29 1347.06 1324.88 1338.07 1323.91 C 1314.78 1321.41 1331.21 1352.56 1334.32 1363.12 C 1307.59 1374.09 1281.83 1380.67 1253.89 1388.03 C 1257.1 1389.96 1257.75 1389.87 1261.33 1390.19 L 1261.46 1390.48 L 1260.88 1390.32 L 1259.57 1391.44 C 1252.9 1391.68 1246.23 1391.98 1239.56 1392.34 C 1238.72 1390.96 1238.83 1391.35 1238.76 1390.85 C 1196.71 1398.12 1161.6 1400.37 1118.82 1400.7 C 1120.79 1392.59 1122.64 1384.46 1124.39 1376.3 C 1125.64 1370.29 1127.22 1363.98 1123.39 1358.53 C 1119.5 1352.99 1111.45 1352.78 1107.39 1358.08 C 1101.49 1368.02 1102.84 1372.86 1100.12 1385.52 C 1091.34 1426.43 1058.68 1563.17 994.218 1510.68 C 972.937 1493.35 961.713 1417.19 957.016 1389.91 C 955.336 1384.04 954.308 1351.85 949.183 1348.69 C 924.91 1333.73 932.159 1370.11 932.743 1375.44 C 854.623 1354.71 776.217 1316.7 719.859 1257.69 C 705.286 1242.44 694.963 1228.78 682.478 1211.83 C 702.923 1213.39 743.837 1217.94 763.009 1217.97 L 764.025 1216.51 C 771.951 1216.27 800.32 1214.93 806.791 1216.65 C 804.683 1217.49 803.807 1217.62 802.491 1219.52 C 798.712 1219.65 794.679 1219.67 790.949 1220.1 C 798.219 1220.89 805.497 1221.59 812.783 1222.21 C 825.94 1222.6 838.976 1224.41 852.021 1225.16 C 867.772 1254.01 882.512 1271.5 915.78 1282.41 C 938.364 1289.81 968.301 1286.57 989.458 1276.04 C 998.151 1271.71 1019.13 1256.36 1023.42 1246.84 C 1023.48 1244.61 1024.43 1224.33 1024.4 1224.39 C 1017.25 1217.59 970.294 1214.87 957.498 1213.61 C 947.057 1196.06 947.779 1176.09 962.603 1161.23 C 976.176 1162.63 1014.34 1167.14 1025.8 1165.67 L 1031.03 1163.67 C 1044.83 1146.83 1025.13 1124.46 1012.79 1112.58 C 981.726 1082.7 936.597 1077.1 898.779 1097.49 C 882.779 1106.12 874.334 1114.72 862.169 1128.07 L 803.489 1123.36 C 813.843 1108.93 819.505 1102.65 825.04 1085.05 C 822.07 1078.83 823.68 1041.58 824.097 1032.5 C 824.25 1029.16 823.784 1029.92 825.889 1028.1 C 809.965 954.945 710.968 921.941 644.948 940.017 C 641.41 940.476 639.48 940.766 636.033 941.624 C 632.506 942.495 628.742 944.072 625.314 945.38 C 645.318 847.818 695.303 764.913 777.178 707.103 C 829.162 727.424 929.788 743.707 985.296 735.104 L 975.784 734.409 C 985.478 733.252 994.378 732.334 1003.94 730.181 L 995.587 730.265 C 1001.75 728.372 1023.68 727.04 1029.32 728.683 C 1037 728.19 1054.25 723.3 1062.2 721.083 z" fill="#eaaeaf" transform="translate(-327, -423)" />
  <path d="M 825.04 1085.05 C 822.07 1078.83 823.68 1041.58 824.097 1032.5 C 824.25 1029.16 823.784 1029.92 825.889 1028.1 C 831.193 1043.91 831.787 1069.69 825.04 1085.05 z" fill="#2c1e13" transform="translate(-327, -423)" />
  <path d="M 1268.34 712.31 C 1267.96 713.275 1268.26 712.812 1267.29 713.602 C 1263.5 703.656 1262.12 670.113 1266.41 660.637 L 1267.36 662.677 C 1266.35 681.085 1267.14 693.952 1268.34 712.31 z" fill="#eebbbb" transform="translate(-327, -423)" />
  <path d="M 985.296 735.104 L 975.784 734.409 C 985.478 733.252 994.378 732.334 1003.94 730.181 L 995.587 730.265 C 1001.75 728.372 1023.68 727.04 1029.32 728.683 C 1020.75 730.863 994.292 735.351 985.296 735.104 z" fill="#2c1e13" transform="translate(-327, -423)" />
  <path d="M 763.009 1217.97 L 764.025 1216.51 C 771.951 1216.27 800.32 1214.93 806.791 1216.65 C 804.683 1217.49 803.807 1217.62 802.491 1219.52 C 798.712 1219.65 794.679 1219.67 790.949 1220.1 L 780.333 1219.89 L 763.009 1217.97 z" fill="#2c1e13" transform="translate(-327, -423)" />
  <path d="M 780.333 1219.89 L 790.949 1220.1 C 798.219 1220.89 805.497 1221.59 812.783 1222.21 L 812.158 1223.89 C 803.021 1223.13 790.49 1222.38 781.47 1222.52 C 773.758 1222.63 770.026 1224.72 760.869 1223.7 C 764.369 1220.42 775.119 1220.26 780.333 1219.89 z" fill="#eebbbb" transform="translate(-327, -423)" />
  <path d="M 1265.53 789.148 L 1264.29 787.24 C 1264.28 781.832 1264.78 780.651 1266.42 775.593 L 1265.03 774.111 C 1263.93 767.808 1264.55 757.454 1265.51 751.034 C 1268.39 753.04 1266.18 762.781 1269.04 767.558 C 1268.77 773.443 1267.43 783.608 1265.53 789.148 z" fill="#eebbbb" transform="translate(-327, -423)" />
  <path d="M 1495.74 1381.13 C 1495.27 1379.37 1496.11 1355.63 1496.12 1351.57 C 1497.68 1355.01 1497.62 1355.29 1500.57 1357.83 C 1499.67 1364.28 1497.78 1375.01 1495.74 1381.13 z" fill="#eebbbb" transform="translate(-327, -423)" />
  <path d="M 1238.76 1390.85 C 1242.01 1389.78 1250.61 1388.38 1253.89 1388.03 C 1257.1 1389.96 1257.75 1389.87 1261.33 1390.19 L 1261.46 1390.48 L 1260.88 1390.32 L 1259.57 1391.44 C 1252.9 1391.68 1246.23 1391.98 1239.56 1392.34 C 1238.72 1390.96 1238.83 1391.35 1238.76 1390.85 z" fill="#2c1e13" transform="translate(-327, -423)" />
  <path d="M 1024.4 1224.39 C 1030.81 1231.46 1028.66 1239.74 1023.42 1246.84 C 1023.48 1244.61 1024.43 1224.33 1024.4 1224.39 z" fill="#2c1e13" transform="translate(-327, -423)" />
  <path d="M 929.583 879.716 C 939.16 877.398 949.241 880.429 955.952 887.643 C 962.663 894.856 964.959 905.13 961.958 914.514 C 958.956 923.899 951.123 930.933 941.472 932.912 C 926.907 935.899 912.635 926.664 909.393 912.154 C 906.15 897.645 915.133 883.213 929.583 879.716 z" fill="#30271d" transform="translate(-327, -423)" />
  <path d="M 688.984 856.595 C 691.693 854.179 694.874 852.352 698.326 851.231 C 706.272 848.718 712.439 850.442 719.436 854.32 C 725.732 857.926 729.5 864.624 731.092 871.609 C 738.385 903.628 687.959 913.893 680.576 882.525 C 678.499 873.704 681.281 862.029 688.984 856.595 z" fill="#30271d" transform="translate(-327, -423)" />
  <path d="M 688.984 856.595 C 691.693 854.179 694.874 852.352 698.326 851.231 C 706.272 848.718 712.439 850.442 719.436 854.32 C 715.107 857.118 696.74 855.76 688.984 856.595 z" fill="#2c1e13" transform="translate(-327, -423)" />
  <path d="M 985.184 454.322 C 987.326 451.346 992.21 449.253 995.456 448.645 C 1003.64 447.113 1041.47 446.971 1047.37 449.678 C 1048.95 452.781 1047.84 451.521 1051.04 453.386 L 1049.26 454.527 L 1052.2 455.733 L 1051.76 457.068 C 1012.71 475.295 987.971 517.491 972.957 556.131 C 969.586 564.806 961.452 582.671 975.432 585.396 C 978.657 586.045 982.007 585.316 984.67 583.384 C 989.769 579.664 992.001 566.523 994.508 560.353 C 1006.1 531.834 1021.66 504.933 1046.18 485.725 C 1056.93 477.812 1070.87 468.816 1084.89 471.332 C 1095.55 473.244 1115.22 485.701 1123.93 492.575 C 1168.2 519.175 1189.94 577.102 1196.28 625.719 C 1179 629.938 1165.11 634.16 1148.44 640.683 C 1142.93 642.841 1129.45 649.958 1126.17 651.093 C 1116.48 657.306 1110.4 661.351 1101.68 668.784 C 1053.94 669.653 998.506 663.036 951.758 653.551 C 915.485 647.084 862.458 634.302 827.776 622.98 C 829.086 591.979 842.71 556.313 860.898 531.479 C 870.093 518.924 887.564 499.246 901.143 491.588 C 906.881 486.659 917.138 481.097 923.902 477.304 C 916.464 487.679 912.875 495.287 906.58 506.145 C 905.538 516.732 884.614 548.611 890.387 559.195 C 899.416 575.745 908.822 564.192 912.906 551.467 C 926.03 510.576 943.208 471.079 985.184 454.322 z" fill="#e48d5b" transform="translate(-327, -423)" />
  <path d="M 1101.74 664.653 C 1110.48 660.402 1117.55 650.459 1126.17 651.093 C 1116.48 657.306 1110.4 661.351 1101.68 668.784 C 1053.94 669.653 998.506 663.036 951.758 653.551 C 957.329 649.984 974.363 656.435 982.788 657.122 C 1000.59 658.574 1019.52 662.439 1037.61 663.596 C 1058.74 664.949 1081.06 662.582 1101.74 664.653 z" fill="#da9569" transform="translate(-327, -423)" />
  <path d="M 1046.18 485.725 C 1056.93 477.812 1070.87 468.816 1084.89 471.332 C 1095.55 473.244 1115.22 485.701 1123.93 492.575 C 1108.16 492.309 1096.01 473.055 1077.63 474.069 C 1064.35 474.802 1056.44 484.69 1046.18 485.725 z" fill="#da9569" transform="translate(-327, -423)" />
  <path d="M 985.184 454.322 C 987.326 451.346 992.21 449.253 995.456 448.645 C 1003.64 447.113 1041.47 446.971 1047.37 449.678 C 1048.95 452.781 1047.84 451.521 1051.04 453.386 L 1049.26 454.527 C 1026.42 450.177 1007.93 449.737 985.184 454.322 z" fill="#2c1e13" transform="translate(-327, -423)" />
  <path d="M 901.143 491.588 C 906.881 486.659 917.138 481.097 923.902 477.304 C 916.464 487.679 912.875 495.287 906.58 506.145 C 907.907 497.59 913.411 491.393 912.83 488.374 C 909.014 487.872 905.242 490.116 901.143 491.588 z" fill="#da9569" transform="translate(-327, -423)" />
  <path d="M 373.492 1083.05 C 374.808 1081.78 376.157 1080.54 377.536 1079.34 C 394.41 1064.65 414.455 1057.03 436.965 1058.64 C 458.82 1060.34 478.844 1071.49 491.79 1089.18 C 511.756 1116.85 502.761 1119.46 542.866 1120.79 C 543.764 1120.25 544.662 1119.71 545.56 1119.17 C 555.613 1120.49 565.513 1119.73 575.505 1120.41 C 575.775 1120.43 577.211 1121 577.527 1121.11 L 576.117 1122.35 L 576.242 1122.91 L 578.442 1123.29 L 578.344 1124.06 C 589.021 1126.22 601.006 1139.85 611.345 1145.82 C 661.388 1174.7 731.577 1175.7 780.08 1142.51 C 798.702 1143.06 860.378 1153.46 872.509 1146.48 C 881.478 1141.32 887.2 1131.02 895.552 1124.62 C 913.247 1111.05 933.678 1104.17 956.049 1107.29 C 980.27 1110.66 997.151 1125.29 1011.28 1144.23 C 995.809 1142.46 978.565 1139.92 963.182 1139.83 C 944.771 1139.71 930.515 1166.25 929.519 1182.7 C 925.969 1241.36 958.555 1235.6 1001.82 1239.32 C 999.189 1242.04 996.275 1245.15 993.376 1247.56 C 977.962 1260.55 958.012 1266.87 937.929 1265.13 C 915.073 1263.11 895.032 1251.72 881.845 1232.88 C 874.668 1222.62 869.043 1205.95 855.053 1204.18 C 842.83 1202.64 830.284 1201.94 817.993 1200.93 L 727.259 1193.95 L 578.341 1181.08 C 555.936 1179.12 530.536 1175.86 508.478 1174.83 C 494.342 1182.07 487.115 1199.25 469.197 1209.07 C 431.775 1229.57 384.291 1216.4 363.174 1178.39 C 378.311 1180.97 395.299 1183.13 410.572 1184.23 C 429.803 1185.61 444.69 1159.58 446.195 1142.61 C 451.461 1083.19 417.47 1087.38 373.492 1083.05 z" fill="#90938e" transform="translate(-327, -423)" />
  <path d="M 542.866 1120.79 C 543.764 1120.25 544.662 1119.71 545.56 1119.17 C 555.613 1120.49 565.513 1119.73 575.505 1120.41 C 575.775 1120.43 577.211 1121 577.527 1121.11 L 576.117 1122.35 L 576.242 1122.91 L 578.442 1123.29 L 578.344 1124.06 C 568.629 1123.92 552.594 1122.17 542.866 1120.79 z" fill="#2c1e13" transform="translate(-327, -423)" />
  <path d="M 680.459 956.184 C 676.767 955.995 672.937 956.268 669.997 954.258 C 671.993 951.545 702.307 951.95 704.134 953.009 C 701.356 953.419 700.625 952.995 699.053 954.575 L 699.915 954.683 C 704.872 955.347 702.937 955.559 706.101 956.379 C 715.96 958.936 724.216 957.499 733.5 963.125 L 733.674 964.571 C 762.974 977.259 789.031 992.703 801.666 1024.12 C 802.529 1026.3 803.333 1028.5 804.076 1030.72 C 808.113 1045.83 810.144 1059.62 805.425 1074.92 C 802.68 1085.43 797.601 1095.3 790.757 1103.62 C 746.6 1157.25 658.538 1158.3 606.496 1115.83 C 568.946 1085.19 555.753 1035.05 588.878 996.168 C 612.919 967.952 645.054 959.145 680.459 956.184 z" fill="#eaaeaf" transform="translate(-327, -423)" />
  <path d="M 680.459 956.184 C 676.767 955.995 672.937 956.268 669.997 954.258 C 671.993 951.545 702.307 951.95 704.134 953.009 C 701.356 953.419 700.625 952.995 699.053 954.575 L 699.915 954.683 C 704.872 955.347 702.937 955.559 706.101 956.379 C 715.96 958.936 724.216 957.499 733.5 963.125 L 733.674 964.571 C 729.192 964.367 714.917 959.628 708.93 958.732 C 698.624 957.189 690.819 956.562 680.459 956.184 z" fill="#2c1e13" transform="translate(-327, -423)" />
  <path d="M 633.781 1016.05 C 659.277 1016.63 658.88 1070.86 638.535 1081.02 C 613.35 1079.24 612.874 1027.49 633.781 1016.05 z" fill="#30271d" transform="translate(-327, -423)" />
  <path d="M 738.116 1076.4 C 726.286 1095.5 711.097 1079.18 710.185 1062.8 C 709.372 1048.19 709.264 1031.21 722.679 1021.4 C 729.007 1016.78 735.452 1023.62 738.21 1028.91 C 744.865 1042.61 744.832 1062.63 738.116 1076.4 z" fill="#30271d" transform="translate(-327, -423)" />
  <path d="M 738.116 1076.4 C 736.915 1068.03 739.697 1051.98 738.011 1042.43 C 737.498 1039.52 737.028 1031.04 738.21 1028.91 C 744.865 1042.61 744.832 1062.63 738.116 1076.4 z" fill="#2c1e13" transform="translate(-327, -423)" />
  <path d="M 637.428 625.308 C 672.679 621.205 713.358 633.473 745.701 646.475 C 721.069 665.719 734.805 681.191 754.52 696.258 C 731.392 714.743 718.494 726.158 698.1 747.698 C 684.071 763.206 672.106 779.828 660.647 797.26 C 626.001 764.968 627.544 711.028 625.38 668.056 C 624.736 655.276 621.66 641.325 618.916 628.75 C 625.489 627.087 630.735 626.319 637.428 625.308 z" fill="#eaaeaf" transform="translate(-327, -423)" />
  <path d="M 810.562 638.558 C 827.475 645.379 843.006 648.798 859.632 654.583 C 880.759 659.9 901.936 665.021 923.159 669.946 C 939.631 673.235 956.298 676.654 972.913 679.079 L 973.95 677.519 C 979.22 677.453 1072.47 689.192 1074.31 690.588 L 1076.98 692.342 C 1074.11 696.147 1062.53 697.363 1059.41 699.786 C 1050.76 709.774 988.387 717.383 972.367 717.453 C 961.87 717.498 945.796 717.811 934.973 717.435 L 934.285 715.461 C 906.348 714.16 864.892 709.489 838.024 702.514 C 815.179 699.926 769.947 684.888 753.627 667.446 C 768.405 654.471 792.223 645.305 810.562 638.558 z" fill="#e48d5b" transform="translate(-327, -423)" />
  <path d="M 838.024 702.514 C 842.441 700.746 890.928 708.883 900.551 710.467 C 929.125 715.172 952.259 712.14 980.425 712.225 L 983.063 713.762 C 965.674 715.454 951.831 715.737 934.285 715.461 C 906.348 714.16 864.892 709.489 838.024 702.514 z" fill="#da9569" transform="translate(-327, -423)" />
  <path d="M 1054.83 699.577 L 1059.41 699.786 C 1050.76 709.774 988.387 717.383 972.367 717.453 C 961.87 717.498 945.796 717.811 934.973 717.435 L 934.285 715.461 C 951.831 715.737 965.674 715.454 983.063 713.762 C 994.413 713.812 1045.94 705.105 1054.83 699.577 z" fill="#2c1e13" transform="translate(-327, -423)" />
  <path d="M 972.913 679.079 L 973.95 677.519 C 979.22 677.453 1072.47 689.192 1074.31 690.588 C 1068.63 691.641 1056.09 690.061 1049.75 689.545 C 1048.08 688.943 1029.33 686.892 1026.43 686.542 C 1008.32 684.353 990.872 682.667 972.913 679.079 z" fill="#2c1e13" transform="translate(-327, -423)" />
  <path d="M 859.632 654.583 C 880.759 659.9 901.936 665.021 923.159 669.946 C 911.686 672.818 868.881 662.653 859.632 654.583 z" fill="#da9569" transform="translate(-327, -423)" />
  <path d="M 1049.75 689.545 C 1056.09 690.061 1068.63 691.641 1074.31 690.588 L 1076.98 692.342 C 1074.11 696.147 1062.53 697.363 1059.41 699.786 L 1054.83 699.577 L 1054.33 699.039 C 1058.5 697.65 1061.47 696.58 1065.5 694.822 L 1065 693.464 C 1059.15 691.179 1054.76 692.247 1048.13 690.509 L 1049.75 689.545 z" fill="#da9569" transform="translate(-327, -423)" />
  <path d="M 775.673 1331.47 C 786.492 1337.51 796.961 1344.39 807.954 1350.12 C 836.663 1365.09 873.819 1381.59 904.82 1390.09 C 899.627 1414.04 892.916 1436.28 881.792 1458.2 C 867.433 1479.66 843.261 1490.59 820.211 1472.45 C 805.015 1460.49 796.207 1433.8 791.14 1415.72 C 783.614 1388.86 778.567 1359.37 775.673 1331.47 z" fill="#eaaeaf" transform="translate(-327, -423)" />
  <path d="M 1315.88 1393.15 L 1316.61 1393.88 C 1317.24 1407.84 1302.61 1442.97 1292.22 1454.03 C 1273.93 1473.48 1251.28 1468.99 1232.62 1451.4 C 1222.02 1437.71 1221.34 1431.52 1214.28 1416.63 C 1248.26 1413.02 1283.48 1403.65 1315.88 1393.15 z" fill="#eaaeaf" transform="translate(-327, -423)" />
  <path d="M 1025.8 1165.67 L 1023.72 1164.56 L 1024.68 1163.57 L 1024.45 1162.51 C 1016.09 1161.21 1002.07 1162.28 996.093 1160.72 L 997.631 1159.85 C 1007.71 1161.76 1023.87 1155.57 1031.03 1163.67 L 1025.8 1165.67 z" fill="#2c1e13" transform="translate(-327, -423)" />
  <path d="M 636.033 941.624 C 639.48 940.766 641.41 940.476 644.948 940.017 C 649.339 942.456 653.286 941.662 655.831 943.535 C 649.994 943.827 640.519 945.009 636.033 941.624 z" fill="#2c1e13" transform="translate(-327, -423)" />
</svg>