<svg width="988" height="155" viewBox="0 0 988 155" fill="none" xmlns="http://www.w3.org/2000/svg">
<path d="M265.352 57.688C265 58.264 264.632 58.696 264.248 58.984C263.864 59.24 263.384 59.368 262.808 59.368C262.2 59.368 261.512 59.112 260.744 58.6C260.008 58.088 259.08 57.528 257.96 56.92C256.872 56.28 255.576 55.704 254.072 55.192C252.568 54.648 250.776 54.376 248.696 54.376C246.776 54.376 245.08 54.616 243.608 55.096C242.168 55.576 240.952 56.248 239.96 57.112C238.968 57.976 238.216 59 237.704 60.184C237.224 61.336 236.984 62.6 236.984 63.976C236.984 65.736 237.448 67.208 238.376 68.392C239.304 69.544 240.52 70.536 242.024 71.368C243.56 72.2 245.304 72.936 247.256 73.576C249.208 74.184 251.192 74.84 253.208 75.544C255.256 76.248 257.256 77.048 259.208 77.944C261.16 78.84 262.888 79.976 264.392 81.352C265.928 82.728 267.16 84.408 268.088 86.392C269.016 88.376 269.48 90.792 269.48 93.64C269.48 96.712 268.952 99.592 267.896 102.28C266.84 104.968 265.304 107.32 263.288 109.336C261.304 111.32 258.84 112.888 255.896 114.04C252.984 115.192 249.656 115.768 245.912 115.768C243.704 115.768 241.544 115.544 239.432 115.096C237.352 114.68 235.352 114.088 233.432 113.32C231.544 112.52 229.768 111.56 228.104 110.44C226.44 109.32 224.952 108.072 223.64 106.696L226.904 101.32C227.192 100.872 227.56 100.52 228.008 100.264C228.456 100.008 228.952 99.88 229.496 99.88C230.232 99.88 231.048 100.232 231.944 100.936C232.84 101.608 233.912 102.36 235.16 103.192C236.44 103.992 237.976 104.744 239.768 105.448C241.56 106.12 243.704 106.456 246.2 106.456C250.264 106.456 253.4 105.464 255.608 103.48C257.848 101.496 258.968 98.76 258.968 95.272C258.968 93.32 258.504 91.736 257.576 90.52C256.648 89.272 255.416 88.232 253.88 87.4C252.376 86.568 250.648 85.864 248.696 85.288C246.744 84.712 244.76 84.104 242.744 83.464C240.728 82.792 238.744 82.024 236.792 81.16C234.84 80.264 233.096 79.112 231.56 77.704C230.056 76.264 228.84 74.504 227.912 72.424C226.984 70.312 226.52 67.688 226.52 64.552C226.52 62.056 227 59.64 227.96 57.304C228.952 54.968 230.376 52.904 232.232 51.112C234.12 49.288 236.44 47.832 239.192 46.744C241.944 45.656 245.08 45.112 248.6 45.112C252.568 45.112 256.2 45.736 259.496 46.984C262.824 48.232 265.688 50.008 268.088 52.312L265.352 57.688ZM321.55 105.592V115H281.614V45.88H292.846V105.592H321.55ZM393.34 80.44C393.34 85.56 392.508 90.28 390.844 94.6C389.18 98.92 386.828 102.648 383.788 105.784C380.78 108.888 377.148 111.32 372.892 113.08C368.668 114.84 363.964 115.72 358.78 115.72C353.628 115.72 348.924 114.84 344.668 113.08C340.444 111.32 336.812 108.888 333.772 105.784C330.732 102.648 328.38 98.92 326.716 94.6C325.052 90.28 324.22 85.56 324.22 80.44C324.22 75.32 325.052 70.6 326.716 66.28C328.38 61.96 330.732 58.232 333.772 55.096C336.812 51.96 340.444 49.512 344.668 47.752C348.924 45.992 353.628 45.112 358.78 45.112C363.964 45.112 368.668 45.992 372.892 47.752C377.148 49.512 380.78 51.96 383.788 55.096C386.828 58.232 389.18 61.96 390.844 66.28C392.508 70.6 393.34 75.32 393.34 80.44ZM381.868 80.44C381.868 76.472 381.324 72.904 380.236 69.736C379.18 66.568 377.644 63.88 375.628 61.672C373.644 59.464 371.228 57.768 368.38 56.584C365.532 55.4 362.332 54.808 358.78 54.808C355.26 54.808 352.076 55.4 349.228 56.584C346.38 57.768 343.948 59.464 341.932 61.672C339.916 63.88 338.364 66.568 337.276 69.736C336.188 72.904 335.644 76.472 335.644 80.44C335.644 84.44 336.188 88.024 337.276 91.192C338.364 94.36 339.916 97.048 341.932 99.256C343.948 101.432 346.38 103.112 349.228 104.296C352.076 105.448 355.26 106.024 358.78 106.024C362.332 106.024 365.532 105.448 368.38 104.296C371.228 103.112 373.644 101.432 375.628 99.256C377.644 97.048 379.18 94.36 380.236 91.192C381.324 88.024 381.868 84.44 381.868 80.44ZM427.15 81.112C429.646 81.112 431.838 80.792 433.726 80.152C435.646 79.512 437.23 78.616 438.478 77.464C439.758 76.28 440.718 74.856 441.358 73.192C441.998 71.528 442.318 69.672 442.318 67.624C442.318 65.608 441.998 63.8 441.358 62.2C440.75 60.6 439.822 59.24 438.574 58.12C437.326 57 435.742 56.152 433.822 55.576C431.934 54.968 429.71 54.664 427.15 54.664H416.878V81.112H427.15ZM427.15 45.88C431.662 45.88 435.566 46.408 438.862 47.464C442.19 48.52 444.926 50.008 447.07 51.928C449.246 53.816 450.862 56.104 451.918 58.792C452.974 61.448 453.502 64.392 453.502 67.624C453.502 70.92 452.942 73.944 451.822 76.696C450.702 79.416 449.038 81.768 446.83 83.752C444.622 85.704 441.87 87.24 438.574 88.36C435.31 89.448 431.502 89.992 427.15 89.992H416.878V115H405.646V45.88H427.15Z" fill="black"/>
<path d="M527.36 105.928L527.312 115H484.208V45.88H527.312V54.952H495.488V75.784H520.928V84.568H495.488V105.928H527.36ZM596.737 45.88V115H591.025C590.161 115 589.425 114.856 588.817 114.568C588.209 114.248 587.633 113.736 587.089 113.032L549.121 64.264C549.217 65.192 549.281 66.12 549.313 67.048C549.377 67.944 549.409 68.776 549.409 69.544V115H539.521V45.88H545.377C545.857 45.88 546.257 45.912 546.577 45.976C546.929 46.008 547.249 46.088 547.537 46.216C547.825 46.344 548.097 46.536 548.353 46.792C548.609 47.048 548.881 47.368 549.169 47.752L587.185 96.568C587.089 95.576 587.009 94.6 586.945 93.64C586.913 92.68 586.897 91.784 586.897 90.952V45.88H596.737ZM669.8 80.968V108.328C662.92 113.288 654.92 115.768 645.8 115.768C640.2 115.768 635.128 114.904 630.584 113.176C626.072 111.416 622.216 108.984 619.016 105.88C615.816 102.744 613.352 99.016 611.624 94.696C609.896 90.376 609.032 85.624 609.032 80.44C609.032 75.224 609.864 70.456 611.528 66.136C613.192 61.784 615.576 58.056 618.68 54.952C621.784 51.816 625.528 49.4 629.912 47.704C634.296 45.976 639.224 45.112 644.696 45.112C647.48 45.112 650.056 45.336 652.424 45.784C654.824 46.2 657.048 46.792 659.096 47.56C661.144 48.328 663.032 49.256 664.76 50.344C666.488 51.432 668.072 52.648 669.512 53.992L666.296 59.128C665.784 59.928 665.128 60.424 664.328 60.616C663.528 60.808 662.664 60.616 661.736 60.04C660.808 59.496 659.816 58.92 658.76 58.312C657.736 57.704 656.552 57.144 655.208 56.632C653.864 56.088 652.312 55.656 650.552 55.336C648.792 54.984 646.712 54.808 644.312 54.808C640.664 54.808 637.368 55.416 634.424 56.632C631.512 57.816 629.016 59.528 626.936 61.768C624.856 63.976 623.256 66.664 622.136 69.832C621.016 73 620.456 76.536 620.456 80.44C620.456 84.568 621.048 88.264 622.232 91.528C623.416 94.76 625.096 97.512 627.272 99.784C629.448 102.024 632.072 103.736 635.144 104.92C638.248 106.104 641.704 106.696 645.512 106.696C648.36 106.696 650.888 106.392 653.096 105.784C655.336 105.176 657.528 104.328 659.672 103.24V89.512H650.024C649.288 89.512 648.712 89.32 648.296 88.936C647.88 88.52 647.672 87.992 647.672 87.352V80.968H669.8ZM694.332 115H683.052V45.88H694.332V115ZM767.924 45.88V115H762.212C761.348 115 760.612 114.856 760.004 114.568C759.396 114.248 758.82 113.736 758.276 113.032L720.308 64.264C720.404 65.192 720.468 66.12 720.5 67.048C720.564 67.944 720.596 68.776 720.596 69.544V115H710.708V45.88H716.564C717.044 45.88 717.444 45.912 717.764 45.976C718.116 46.008 718.436 46.088 718.724 46.216C719.012 46.344 719.284 46.536 719.54 46.792C719.796 47.048 720.068 47.368 720.356 47.752L758.372 96.568C758.276 95.576 758.196 94.6 758.132 93.64C758.1 92.68 758.084 91.784 758.084 90.952V45.88H767.924ZM827.548 105.928L827.5 115H784.396V45.88H827.5V54.952H795.676V75.784H821.116V84.568H795.676V105.928H827.548ZM882.86 105.928L882.812 115H839.708V45.88H882.812V54.952H850.988V75.784H876.428V84.568H850.988V105.928H882.86ZM915.085 79C917.645 79 919.885 78.696 921.805 78.088C923.725 77.448 925.325 76.568 926.605 75.448C927.885 74.328 928.845 73 929.485 71.464C930.125 69.896 930.445 68.168 930.445 66.28C930.445 62.504 929.197 59.624 926.701 57.64C924.205 55.656 920.429 54.664 915.373 54.664H906.253V79H915.085ZM947.629 115H937.597C935.613 115 934.173 114.232 933.277 112.696L917.149 89.416C916.605 88.616 916.013 88.04 915.373 87.688C914.733 87.336 913.773 87.16 912.493 87.16H906.253V115H895.021V45.88H915.373C919.917 45.88 923.821 46.344 927.085 47.272C930.381 48.2 933.085 49.528 935.197 51.256C937.309 52.952 938.861 55 939.853 57.4C940.877 59.8 941.389 62.472 941.389 65.416C941.389 67.816 941.021 70.056 940.285 72.136C939.581 74.216 938.541 76.104 937.165 77.8C935.821 79.496 934.157 80.968 932.173 82.216C930.189 83.464 927.933 84.44 925.405 85.144C926.781 85.976 927.965 87.144 928.957 88.648L947.629 115Z" fill="#4D4D4D"/>
<path d="M96.6385 5.93885C97.0334 5.85904 97.9584 5.8951 98.4251 5.87127C101.333 5.72324 103.732 6.17577 106.481 7.08473C108.131 7.63018 109.466 8.64947 110.926 9.44861C117.642 13.1218 121.194 17.7121 123.621 24.9612C124.089 26.3585 124.126 28.7887 124.578 29.7157C125.158 30.1888 128.686 29.8037 129.677 29.8207C134.249 29.8994 134.172 30.0599 133.739 34.3341C133.364 38.0242 133.769 42.3504 133.859 46.1026C134.784 46.6554 136.732 47.0269 137.872 47.3911C139.812 48.0225 141.713 48.7634 143.57 49.6101C152.95 53.9351 159.318 58.9955 164.822 67.8161C166.015 69.7275 166.883 72.6685 167.971 74.2973C169.284 75.0286 173.118 71.9784 173.853 70.8598C173.974 70.5144 172.209 69.4048 171.91 69.202C167.917 66.4859 167.29 58.6825 172.852 57.3826C177.943 56.1926 179.932 61.6579 179.112 65.7671C178.94 66.6217 177.889 68.2872 178.043 69.0858C178.924 69.6061 181.603 68.9862 182.421 68.4312C183.353 67.799 184.43 65.5462 185.9 66.7423C186.837 69.2843 181.66 71.3224 179.766 71.5605C178.987 71.6585 177.284 71.4781 176.44 71.4288C174.672 73.3818 173.318 74.7279 170.972 76.0258C170.201 76.4528 169.432 76.5572 168.911 76.9244C168.735 77.7824 170.352 83.7766 170.459 85.3893C171.001 93.624 169.451 100.839 166.222 108.395C165.108 111.361 163.901 112.158 163.826 115.493C163.736 119.453 162.567 124.698 161.494 128.466C160.1 133.364 157.351 140.866 151.428 141.277C144.528 141.755 142.664 134.205 141.311 128.952C141.094 128.118 140.926 126.543 140.298 126.009L140.054 126.031C139.822 126.355 139.857 126.79 139.808 127.18C139.374 130.607 137.771 135.228 135.115 137.519C130.946 141.116 124.493 138.058 122.867 133.264C122.716 132.818 121.88 130.811 121.638 130.506C121.067 130.48 120.506 130.475 119.939 130.538C117.141 130.855 114.331 130.74 111.522 130.889C111.227 131.517 110.925 132.866 110.684 133.609C109.566 137.057 108.667 139.777 106.302 142.631C105.091 144.583 102.649 145.993 100.387 146.118C97.5181 146.274 95.7456 144.944 93.9535 142.851C93.7158 142.573 93.5912 142.017 93.3827 141.707C91.6569 138.632 90.9966 134.948 90.2405 131.527C90.0193 130.527 89.9291 128.427 89.1673 127.736C87.3179 127.118 87.3697 130.723 86.8173 132.033C86.0198 133.943 85.0231 137.167 83.4102 138.57C76.6456 144.452 70.9061 138.748 69.1449 131.792C67.8663 126.743 66.9084 123.194 66.8606 118.138C65.851 116.555 64.402 115.766 63.09 114.46C60.5625 111.943 57.9093 109.486 56.0043 106.434C55.4841 105.602 55.0207 104.755 54.4473 103.953L54.3549 103.827C48.3899 103.509 42.1515 102.656 36.3204 102.371C35.5706 103.393 34.6839 104.305 33.6854 105.083C28.6399 109.02 22.1823 108.506 17.5353 104.238C16.3569 103.155 13.6991 99.5123 15.2251 98.061C16.7732 97.4936 22.0557 98.4216 24.0407 98.5149C24.3532 98.1001 24.7771 97.4407 24.9592 96.9615C27.9875 88.9903 19.3872 91.6154 16.1216 89.9234C16.0657 88.4607 16.0943 87.5819 17.1611 86.4484C20.4465 82.9671 25.4279 81.8538 29.8549 83.4274C33.7747 84.8206 35.1811 86.9906 37.5069 90.1289C37.755 90.4643 42.0089 90.6282 42.7022 90.5563C43.0191 89.9877 41.7734 88.6335 41.5541 87.6992C40.2828 82.744 41.4117 77.4073 45.4839 74.0894C48.3215 71.7773 47.5715 72.5222 48.3273 68.8178C48.6112 67.4787 48.9542 66.1531 49.3552 64.8447C49.9192 62.9424 50.6209 61.0841 51.4543 59.2846C51.9461 58.2284 53.3846 55.6442 53.4919 54.6151C53.5468 54.0884 52.247 53.1294 51.9284 52.6439C51.0061 51.2382 50.0803 49.3759 49.4702 47.823C47.7101 43.3427 48.2461 39.3727 47.9604 34.7295C47.8746 33.3355 47.2161 32.1672 47.2138 30.3382L47.2144 30.1296C47.4803 29.7079 48.0492 28.9376 48.5396 28.7618C55.8768 26.1317 61.8019 29.62 68.5155 31.5912C69.8749 30.792 71.7724 30.2479 73.3086 29.4373C73.5597 25.3725 75.759 20.1072 78.1566 16.8473C80.5147 13.625 83.6415 11.0507 87.2492 9.36148C88.4196 8.80922 89.7151 8.39969 90.8355 7.88362C92.448 7.0962 93.9362 6.38848 95.7485 6.16909C96.1038 6.12609 96.3018 6.06305 96.6385 5.93885ZM175.349 68.4871C176.878 65.9125 178.554 61.8714 175.198 59.8845C174.671 59.5726 174.003 59.4388 173.412 59.6398C168.676 60.9817 171.959 67.6681 175.349 68.4871Z" fill="#30271D"/>
<path d="M105.229 42.5844C104.955 43.2815 104.477 44.1656 104.928 44.9007C105.46 45.9247 106.718 45.604 107.195 44.7325C108.588 42.1866 109.542 40.105 111.798 38.1528C116.47 34.1103 125.376 31.8858 131.453 32.3496C131.251 33.1643 131.096 34.3655 130.966 35.2201C130.84 37.5412 130.939 39.1635 131.089 41.4782C131.309 42.8674 131.437 47.1514 131.177 48.4443C131.143 49.1863 130.975 50.468 130.737 51.1665C130.15 54.2158 128.296 57.189 125.784 58.9976C124.937 59.6075 122.992 60.0149 122.875 61.0604C122.615 63.3934 124.977 62.5366 126.024 61.9845C130.825 59.4503 133.613 54.142 133.972 48.8269C137.101 49.7106 140.076 50.6212 143.043 51.9675C151.298 55.7138 158.503 61.7504 162.963 69.7525C166.18 75.5226 168.025 82.4376 168.14 89.0685C168.183 95.6212 166.334 102.043 163.678 107.976C163.273 108.881 162.109 111.057 161.924 111.899C161.139 115.491 161.09 119.256 160.222 122.87C160.109 123.683 159.872 125.036 159.616 125.808C158.606 130.243 157.009 135.35 153.235 138.2C152.803 138.525 151.922 138.672 151.397 138.748C146.105 139.51 144.871 132.239 143.812 128.478C143.287 126.558 142.707 124.654 142.073 122.769C141.754 121.793 140.965 118.715 139.837 118.593C136.915 118.278 138.976 122.205 139.366 123.537C136.013 124.92 132.782 125.75 129.277 126.678C129.679 126.921 129.761 126.91 130.21 126.95L130.226 126.987L130.153 126.966L129.989 127.108C129.152 127.138 128.316 127.176 127.479 127.221C127.373 127.047 127.387 127.096 127.378 127.033C122.103 127.95 117.699 128.234 112.332 128.275C112.579 127.253 112.811 126.228 113.031 125.199C113.188 124.441 113.386 123.645 112.906 122.958C112.418 122.26 111.408 122.233 110.898 122.901C110.158 124.155 110.328 124.765 109.986 126.361C108.885 131.519 104.788 148.761 96.7012 142.142C94.0315 139.957 92.6235 130.354 92.0343 126.915C91.8235 126.175 91.6945 122.116 91.0516 121.717C88.0066 119.831 88.916 124.418 88.9893 125.09C79.1893 122.476 69.3534 117.684 62.2834 110.244C60.4552 108.321 59.1602 106.598 57.594 104.461C60.1588 104.658 65.2914 105.232 67.6965 105.235L67.8239 105.051C68.8182 105.021 72.3771 104.852 73.1888 105.069C72.9244 105.175 72.8145 105.191 72.6494 105.431C72.1753 105.447 71.6694 105.45 71.2015 105.504C72.1135 105.604 73.0265 105.692 73.9405 105.77C75.591 105.819 77.2264 106.047 78.8628 106.142C80.8388 109.78 82.6879 111.985 86.8613 113.36C89.6944 114.293 93.4499 113.885 96.104 112.557C97.1946 112.011 99.8263 110.076 100.365 108.875C100.372 108.594 100.491 106.037 100.487 106.045C99.5905 105.187 93.7 104.844 92.0947 104.686C90.7849 102.473 90.8755 99.9548 92.7351 98.0812C94.4379 98.2577 99.2255 98.8264 100.663 98.641L101.319 98.3888C103.05 96.2655 100.579 93.4449 99.031 91.947C95.1341 88.1796 89.4727 87.4735 84.7285 90.0444C82.7214 91.1325 81.662 92.2169 80.1359 93.9001L72.7746 93.3063C74.0735 91.4868 74.7838 90.695 75.4781 88.4759C75.1056 87.6916 75.3075 82.9949 75.3598 81.85C75.379 81.4289 75.3206 81.5247 75.5846 81.2952C73.587 72.0713 61.168 67.91 52.886 70.1891C52.4421 70.247 52.2 70.2835 51.7676 70.3917C51.3251 70.5015 50.8529 70.7004 50.4229 70.8653C52.9324 58.564 59.2029 48.1108 69.4739 40.8217C75.9952 43.3839 88.6186 45.437 95.5819 44.3522L94.3887 44.2646C95.6048 44.1187 96.7213 44.003 97.9208 43.7315L96.8729 43.7421C97.6461 43.5034 100.397 43.3355 101.105 43.5426C102.068 43.4805 104.232 42.8639 105.229 42.5844Z" fill="#EAAEAF"/>
<path d="M75.4781 88.4759C75.1056 87.6916 75.3075 82.9949 75.3598 81.85C75.379 81.4289 75.3206 81.5247 75.5846 81.2952C76.25 83.2887 76.3245 86.5392 75.4781 88.4759Z" fill="#2C1E13"/>
<path d="M131.089 41.4782C131.042 41.5999 131.079 41.5415 130.958 41.6411C130.482 40.3871 130.309 36.1577 130.847 34.9629L130.966 35.2202C130.84 37.5412 130.939 39.1635 131.089 41.4782Z" fill="#EEBBBB"/>
<path d="M95.5819 44.3522L94.3887 44.2646C95.6048 44.1187 96.7213 44.003 97.9208 43.7315L96.8729 43.7421C97.6461 43.5034 100.397 43.3355 101.105 43.5426C100.03 43.8175 96.7105 44.3834 95.5819 44.3522Z" fill="#2C1E13"/>
<path d="M67.6965 105.235L67.8239 105.051C68.8182 105.021 72.3771 104.852 73.1888 105.069C72.9244 105.175 72.8145 105.191 72.6494 105.431C72.1753 105.447 71.6694 105.45 71.2015 105.504L69.8697 105.477L67.6965 105.235Z" fill="#2C1E13"/>
<path d="M69.8697 105.477L71.2015 105.504C72.1135 105.604 73.0265 105.692 73.9405 105.77L73.8621 105.982C72.7159 105.886 71.1439 105.791 70.0124 105.809C69.0449 105.823 68.5767 106.086 67.428 105.958C67.8671 105.544 69.2156 105.524 69.8697 105.477Z" fill="#EEBBBB"/>
<path d="M130.737 51.1665L130.581 50.9259C130.58 50.244 130.643 50.0951 130.848 49.4574L130.674 49.2705C130.536 48.4758 130.614 47.1703 130.734 46.3608C131.096 46.6137 130.818 47.842 131.177 48.4443C131.143 49.1863 130.975 50.468 130.737 51.1665Z" fill="#EEBBBB"/>
<path d="M159.616 125.808C159.557 125.586 159.663 122.592 159.664 122.081C159.859 122.514 159.852 122.55 160.222 122.87C160.109 123.683 159.872 125.036 159.616 125.808Z" fill="#EEBBBB"/>
<path d="M127.379 127.033C127.786 126.898 128.865 126.722 129.277 126.678C129.679 126.921 129.761 126.91 130.21 126.95L130.226 126.987L130.153 126.966L129.989 127.108C129.152 127.138 128.316 127.176 127.479 127.221C127.373 127.047 127.387 127.096 127.379 127.033Z" fill="#2C1E13"/>
<path d="M100.487 106.045C101.292 106.936 101.022 107.98 100.365 108.875C100.372 108.594 100.491 106.037 100.487 106.045Z" fill="#2C1E13"/>
<path d="M88.5928 62.5859C89.7943 62.2937 91.0589 62.6758 91.9008 63.5854C92.7427 64.4949 93.0307 65.7903 92.6542 66.9735C92.2776 68.1568 91.295 69.0437 90.0843 69.2933C88.2571 69.6699 86.4668 68.5055 86.0601 66.6759C85.6532 64.8465 86.7801 63.0269 88.5928 62.5859Z" fill="#30271D"/>
<path d="M58.4102 59.6707C58.75 59.366 59.1491 59.1357 59.5821 58.9943C60.5789 58.6775 61.3526 58.8949 62.2303 59.3838C63.0201 59.8385 63.4928 60.683 63.6925 61.5637C64.6074 65.6009 58.2816 66.8952 57.3554 62.9401C57.0949 61.8279 57.4439 60.3558 58.4102 59.6707Z" fill="#30271D"/>
<path d="M58.4102 59.6707C58.75 59.366 59.1491 59.1357 59.5821 58.9943C60.5789 58.6775 61.3526 58.8949 62.2303 59.3838C61.6873 59.7366 59.3832 59.5654 58.4102 59.6707Z" fill="#2C1E13"/>
<path d="M95.5679 8.94929C95.8366 8.57406 96.4493 8.31016 96.8565 8.23349C97.8832 8.04033 102.629 8.02243 103.369 8.36374C103.567 8.75499 103.428 8.59612 103.829 8.83127L103.606 8.97514L103.975 9.1272L103.92 9.29553C99.021 11.5937 95.9175 16.9141 94.034 21.7861C93.6111 22.8799 92.5908 25.1324 94.3445 25.476C94.7491 25.5578 95.1693 25.4659 95.5034 25.2223C96.1431 24.7533 96.4231 23.0964 96.7376 22.3184C98.1918 18.7225 100.144 15.3307 103.22 12.9088C104.568 11.9111 106.317 10.7768 108.076 11.094C109.413 11.3351 111.881 12.9058 112.973 13.7725C118.527 17.1264 121.254 24.4302 122.049 30.5602C119.882 31.0922 118.139 31.6245 116.048 32.447C115.357 32.7191 113.666 33.6164 113.254 33.7596C112.039 34.5429 111.276 35.053 110.182 35.9902C104.193 36.0997 97.2391 35.2654 91.3747 34.0695C86.8243 33.2541 80.1722 31.6424 75.8214 30.2149C75.9857 26.306 77.6948 21.809 79.9765 18.6778C81.13 17.0948 83.3217 14.6136 85.0251 13.6481C85.7449 13.0266 87.0316 12.3253 87.8802 11.847C86.9471 13.1552 86.4969 14.1144 85.7072 15.4835C85.5765 16.8184 82.9516 20.8379 83.6758 22.1724C84.8085 24.2591 85.9884 22.8025 86.5008 21.198C88.1471 16.0422 90.3021 11.0621 95.5679 8.94929Z" fill="#E48D5B"/>
<path d="M110.19 35.4693C111.286 34.9333 112.173 33.6796 113.254 33.7596C112.039 34.5429 111.276 35.053 110.182 35.9902C104.193 36.0997 97.2391 35.2654 91.3747 34.0695C92.0735 33.6197 94.2104 34.4331 95.2673 34.5197C97.5005 34.7028 99.8753 35.1901 102.145 35.336C104.795 35.5066 107.595 35.2082 110.19 35.4693Z" fill="#DA9569"/>
<path d="M103.22 12.9088C104.568 11.9111 106.317 10.7768 108.076 11.094C109.413 11.3351 111.881 12.9058 112.973 13.7725C110.995 13.739 109.471 11.3113 107.165 11.4391C105.499 11.5316 104.507 12.7783 103.22 12.9088Z" fill="#DA9569"/>
<path d="M95.5679 8.94929C95.8366 8.57406 96.4493 8.31016 96.8565 8.23349C97.8832 8.04033 102.629 8.02243 103.369 8.36374C103.567 8.75499 103.428 8.59612 103.829 8.83127L103.606 8.97514C100.741 8.42666 98.4213 8.37118 95.5679 8.94929Z" fill="#2C1E13"/>
<path d="M85.0251 13.6481C85.7449 13.0266 87.0316 12.3253 87.8802 11.847C86.9471 13.1552 86.4969 14.1145 85.7072 15.4835C85.8736 14.4048 86.5641 13.6235 86.4912 13.2428C86.0125 13.1795 85.5393 13.4625 85.0251 13.6481Z" fill="#DA9569"/>
<path d="M18.8323 88.2237C18.9974 88.0636 19.1666 87.9072 19.3396 87.7559C21.4565 85.9037 23.9711 84.9429 26.7949 85.1459C29.5366 85.3603 32.0485 86.7661 33.6726 88.9966C36.1773 92.4854 35.0489 92.8145 40.08 92.9822C40.1926 92.9141 40.3053 92.8461 40.4179 92.778C41.679 92.9444 42.921 92.8486 44.1745 92.9343C44.2083 92.9368 44.3885 93.0087 44.4281 93.0226L44.2512 93.1789L44.2669 93.2495L44.5429 93.2974L44.5306 93.3945C45.87 93.6669 47.3735 95.3854 48.6705 96.1382C54.9483 99.7796 63.7534 99.9057 69.838 95.7208C72.1741 95.7902 79.9112 97.1015 81.433 96.2214C82.5582 95.5708 83.276 94.2721 84.3237 93.4651C86.5435 91.7541 89.1066 90.8867 91.913 91.2801C94.9514 91.705 97.0691 93.5496 98.8416 95.9377C96.9008 95.7145 94.7375 95.3943 92.8078 95.3829C90.4981 95.3678 88.7098 98.7141 88.5848 100.788C88.1395 108.185 92.2273 107.458 97.6548 107.927C97.3248 108.27 96.9592 108.662 96.5955 108.966C94.6619 110.604 92.1592 111.401 89.6398 111.182C86.7726 110.927 84.2585 109.491 82.6042 107.115C81.7039 105.822 80.9982 103.72 79.2432 103.497C77.7098 103.302 76.136 103.214 74.5941 103.087L63.2117 102.207L44.5302 100.584C41.7196 100.337 38.5332 99.9258 35.7661 99.796C33.9927 100.709 33.0861 102.875 30.8383 104.113C26.1438 106.698 20.187 105.037 17.538 100.245C19.4369 100.57 21.568 100.842 23.4839 100.981C25.8964 101.155 27.764 97.8731 27.9528 95.7334C28.6134 88.2414 24.3493 88.7697 18.8323 88.2237Z" fill="#90938E"/>
<path d="M40.08 92.9822C40.1926 92.9141 40.3053 92.846 40.4179 92.778C41.679 92.9444 42.921 92.8486 44.1745 92.9343C44.2083 92.9368 44.3885 93.0087 44.4281 93.0226L44.2512 93.1789L44.2669 93.2495L44.5429 93.2974L44.5306 93.3945C43.3119 93.3769 41.3003 93.1562 40.08 92.9822Z" fill="#2C1E13"/>
<path d="M57.3407 72.2275C56.8776 72.2037 56.3971 72.2381 56.0283 71.9847C56.2787 71.6426 60.0815 71.6937 60.3107 71.8272C59.9622 71.8789 59.8705 71.8255 59.6733 72.0247L59.7814 72.0383C60.4033 72.122 60.1606 72.1487 60.5575 72.2521C61.7943 72.5745 62.83 72.3934 63.9946 73.1027L64.0164 73.285C67.6921 74.8848 70.9609 76.8321 72.5459 80.7934C72.6542 81.0683 72.755 81.3456 72.8482 81.6256C73.3547 83.5307 73.6095 85.2695 73.0175 87.1986C72.6731 88.5238 72.036 89.7683 71.1774 90.8173C65.638 97.5793 54.5908 97.7117 48.0622 92.3568C43.3516 88.4935 41.6966 82.1715 45.8521 77.269C48.868 73.7113 52.8992 72.6009 57.3407 72.2275Z" fill="#EAAEAF"/>
<path d="M57.3407 72.2275C56.8776 72.2037 56.3971 72.2381 56.0283 71.9847C56.2787 71.6426 60.0815 71.6937 60.3107 71.8272C59.9622 71.8789 59.8705 71.8255 59.6733 72.0247L59.7815 72.0383C60.4033 72.122 60.1606 72.1487 60.5575 72.2521C61.7943 72.5745 62.83 72.3934 63.9946 73.1027L64.0165 73.285C63.4542 73.2593 61.6634 72.6618 60.9124 72.5488C59.6195 72.3543 58.6404 72.2752 57.3407 72.2275Z" fill="#2C1E13"/>
<path d="M51.4851 79.7759C54.6835 79.849 54.6337 86.6867 52.0815 87.9677C48.922 87.7433 48.8623 81.2183 51.4851 79.7759Z" fill="#30271D"/>
<path d="M64.5737 87.3852C63.0896 89.7935 61.1842 87.7357 61.0698 85.6704C60.9678 83.8283 60.9543 81.6873 62.6372 80.4504C63.431 79.8679 64.2395 80.7303 64.5855 81.3973C65.4203 83.1247 65.4162 85.649 64.5737 87.3852Z" fill="#30271D"/>
<path d="M64.5737 87.3852C64.423 86.3299 64.772 84.3062 64.5605 83.1021C64.4962 82.7351 64.4372 81.6659 64.5855 81.3974C65.4203 83.1247 65.4162 85.649 64.5737 87.3852Z" fill="#2C1E13"/>
<path d="M51.9426 30.5084C56.3647 29.9911 61.4678 31.5379 65.5252 33.1773C62.4352 35.6037 64.1583 37.5545 66.6315 39.4543C63.7302 41.785 62.1121 43.2243 59.5538 45.9402C57.7939 47.8955 56.2929 49.9914 54.8554 52.1893C50.5091 48.1177 50.7027 41.3166 50.4312 35.8984C50.3504 34.287 49.9645 32.5279 49.6203 30.9424C50.4449 30.7327 51.103 30.6359 51.9426 30.5084Z" fill="#EAAEAF"/>
<path d="M73.6619 32.179C75.7836 33.0391 77.7319 33.4702 79.8176 34.1996C82.468 34.87 85.1246 35.5157 87.787 36.1367C89.8533 36.5514 91.9442 36.9825 94.0285 37.2882L94.1586 37.0915C94.8197 37.0832 106.518 38.5633 106.749 38.7394L107.084 38.9605C106.723 39.4403 105.271 39.5936 104.879 39.8991C103.794 41.1585 95.9697 42.1179 93.96 42.1267C92.6432 42.1324 90.6267 42.1718 89.269 42.1244L89.1827 41.8755C85.6781 41.7115 80.4775 41.1225 77.107 40.2431C74.2411 39.9167 68.5668 38.0207 66.5195 35.8214C68.3734 34.1855 71.3613 33.0298 73.6619 32.179Z" fill="#E48D5B"/>
<path d="M77.1069 40.2431C77.6611 40.0201 83.7437 41.0461 84.9508 41.2458C88.5354 41.8391 91.4375 41.4568 94.9709 41.4675L95.3018 41.6613C93.1204 41.8746 91.3838 41.9103 89.1827 41.8755C85.6781 41.7115 80.4775 41.1225 77.1069 40.2431Z" fill="#DA9569"/>
<path d="M104.305 39.8728L104.879 39.8991C103.794 41.1585 95.9697 42.1179 93.96 42.1267C92.6432 42.1324 90.6267 42.1718 89.269 42.1244L89.1827 41.8755C91.3838 41.9103 93.1204 41.8746 95.3018 41.6613C96.7256 41.6676 103.19 40.5698 104.305 39.8728Z" fill="#2C1E13"/>
<path d="M94.0285 37.2882L94.1586 37.0915C94.8197 37.0832 106.518 38.5633 106.749 38.7394C106.036 38.8721 104.463 38.6729 103.668 38.6078C103.458 38.5319 101.106 38.2733 100.742 38.2292C98.4703 37.9532 96.2814 37.7406 94.0285 37.2882Z" fill="#2C1E13"/>
<path d="M79.8176 34.1996C82.468 34.87 85.1246 35.5157 87.787 36.1367C86.3477 36.4988 80.9779 35.2171 79.8176 34.1996Z" fill="#DA9569"/>
<path d="M103.668 38.6078C104.463 38.6729 106.036 38.8721 106.749 38.7394L107.084 38.9605C106.723 39.4403 105.271 39.5936 104.879 39.8991L104.305 39.8728L104.242 39.8049C104.765 39.6298 105.138 39.4949 105.643 39.2732L105.581 39.102C104.847 38.8139 104.296 38.9485 103.464 38.7294L103.668 38.6078Z" fill="#DA9569"/>
<path d="M69.2851 119.546C70.6424 120.308 71.9557 121.175 73.3347 121.898C76.9362 123.785 81.5974 125.866 85.4864 126.937C84.8349 129.957 83.993 132.761 82.5976 135.525C80.7963 138.231 77.7639 139.609 74.8723 137.322C72.966 135.814 71.8611 132.449 71.2255 130.169C70.2813 126.782 69.6482 123.064 69.2851 119.546Z" fill="#EAAEAF"/>
<path d="M137.053 127.323L137.145 127.415C137.224 129.175 135.388 133.605 134.085 134.999C131.791 137.452 128.949 136.886 126.608 134.668C125.278 132.942 125.193 132.161 124.308 130.284C128.57 129.829 132.989 128.647 137.053 127.323Z" fill="#EAAEAF"/>
<path d="M100.663 98.641L100.402 98.5011L100.523 98.3762L100.494 98.2426C99.445 98.0787 97.6862 98.2136 96.9364 98.0169L97.1293 97.9072C98.3937 98.148 100.421 97.3675 101.319 98.3888L100.663 98.641Z" fill="#2C1E13"/>
<path d="M51.7676 70.3917C52.2 70.2835 52.4421 70.247 52.886 70.1891C53.4368 70.4966 53.9319 70.3965 54.2512 70.6327C53.519 70.6695 52.3303 70.8185 51.7676 70.3917Z" fill="#2C1E13"/>
</svg>
